<svg xmlns="http://www.w3.org/2000/svg" viewBox="0 0 89.02 68.97"><title>meeting</title><g id="Layer_2" data-name="Layer 2"><g id="Layer_1-2" data-name="Layer 1"><path d="M13.06,53.66a.14.14,0,0,0,0,.07v-.07Z"/><path d="M80.32,31.25a9.32,9.32,0,0,0-5,1.26c-.06-4.1-.72-8.77-5.68-8.77A7.07,7.07,0,0,0,65,25.22c.11-3.64.61-9.45-4.75-9.45-4.64,0-6,3.65-6.57,7a14,14,0,0,0-2.08-.68c-.08-.33-.18-.67-.26-1C50.13,16.23,50,10.27,44.2,10.17c-5.76.1-5.93,6.06-7.21,10.89-.09.31-.16.62-.24.91a12.2,12.2,0,0,0-1.52.42c-.58-3.23-2-6.62-6.52-6.62-5.36,0-4.85,5.81-4.75,9.45a7.07,7.07,0,0,0-4.62-1.48c-4.85,0-5.58,4.46-5.67,8.48a9.68,9.68,0,0,0-4.46-1c-9.71,0-8.86,9.21-8,17.89a13.73,13.73,0,0,0,7.88,11.6c2.65,1.23,5,2.2,7,3h0C22.63,66.85,34.16,69,44,69c9.44,0,22-1.74,28.8-5,2.14-.79,4.7-1.84,7.68-3.22a13.73,13.73,0,0,0,7.88-11.6C89.2,40.47,90,31.25,80.32,31.25Zm-37-19.18a.88.88,0,1,1,1.75,0,.92.92,0,0,1-.76.93l.91,7.09-.82,1.21-.21.32L44,21.31l-.82-1.23L44.07,13A.92.92,0,0,1,43.32,12.07Zm32,42.49a.52.52,0,0,1-.07.22C74.72,56.15,72,57.63,68,58.91a84.12,84.12,0,0,1-24,3.3,76.09,76.09,0,0,1-22.42-3.27c-4.67-1.48-7.8-3.23-8.48-4.66A.92.92,0,0,1,13,54a.66.66,0,0,1,0-.29v-.07h0a1,1,0,0,1,.24-.43l6.2-8.45,3.56-4.86h0l4.42-6,2.58-3.51,3-4.06a5.4,5.4,0,0,1,2.49-1.63l.57-.19c-.18.72-.33,1.31-.44,1.69h0l-.12.46a2.45,2.45,0,0,0-.12.77c0,.55.28,1.21,1.42,1.21a2.11,2.11,0,0,0,2.22-1.72l.7-3.13a40.38,40.38,0,0,1,4.24-.2,39.71,39.71,0,0,1,4.62.24l.68,3.09a2.12,2.12,0,0,0,2.23,1.72c2,0,1.29-2,1.29-2s-.21-.81-.52-2a9.38,9.38,0,0,1,1.15.49A5,5,0,0,1,55,26.29l1.75,2.39,4.71,6.42,2.4,3.27,6.07,8.28,1.87,2.55L73,50.86l1.75,2.38.11.13C75.37,53.93,75.42,54.31,75.37,54.56Z"/><ellipse cx="44.2" cy="4.61" rx="4.3" ry="4.61"/><ellipse cx="29.39" cy="9.93" rx="4.3" ry="4.61"/><path d="M23.89,16.72a5.37,5.37,0,0,1-5.17,5.55,5.37,5.37,0,0,1-5.17-5.55,5.37,5.37,0,0,1,5.17-5.55A5.37,5.37,0,0,1,23.89,16.72Z"/><ellipse cx="6.47" cy="22.57" rx="6.47" ry="6.94"/><ellipse cx="59.63" cy="9.93" rx="4.3" ry="4.61"/><ellipse cx="70.3" cy="16.72" rx="5.17" ry="5.55"/><ellipse cx="82.55" cy="22.57" rx="6.47" ry="6.94"/></g></g></svg>